<svg xmlns="http://www.w3.org/2000/svg" viewBox="0 0 1200 900"><rect width="1200" height="900" rx="32" fill="#e9f1f7"/><rect x="245" y="70" width="710" height="760" rx="22" fill="#fffdf9" stroke="#6489a5" stroke-width="7"/><text x="600" y="160" text-anchor="middle" font-family="Arial" font-size="48" font-weight="800" fill="#31536b">OBSERVATION</text><text x="600" y="220" text-anchor="middle" font-family="Arial" font-size="48" font-weight="800" fill="#4f8f8b">CHECKLIST</text><circle cx="820" cy="155" r="45" fill="#e9f1e6" stroke="#4f8f8b" stroke-width="8"/><path d="M795 155 l18 20 36-45" fill="none" stroke="#4f8f8b" stroke-width="10"/><g font-family="Arial" font-size="28" fill="#35434d"><text x="320" y="300" font-weight="700" fill="#31536b">SOCIAL / EMOTIONAL</text><text x="350" y="350">Interacts with peers</text><text x="350" y="400">Shows empathy</text><text x="350" y="450">Follows classroom routines</text><text x="320" y="520" font-weight="700" fill="#31536b">LANGUAGE / COMMUNICATION</text><text x="350" y="570">Uses words to express needs</text><text x="350" y="620">Asks questions</text><text x="350" y="670">Listens to others</text></g><g fill="white" stroke="#6489a5" stroke-width="5"><rect x="820" y="325" width="28" height="28"/><rect x="820" y="375" width="28" height="28"/><rect x="820" y="425" width="28" height="28"/><rect x="820" y="545" width="28" height="28"/><rect x="820" y="595" width="28" height="28"/><rect x="820" y="645" width="28" height="28"/></g></svg>