<svg xmlns="http://www.w3.org/2000/svg" viewBox="0 0 800 500"><rect width="800" height="500" rx="36" fill="#eef4f9"/><path d="M130 120h360a28 28 0 0 1 28 28v160a28 28 0 0 1-28 28H300l-90 65v-65h-80a28 28 0 0 1-28-28V148a28 28 0 0 1 28-28z" fill="#fff" stroke="#6f8fa8" stroke-width="9"/><circle cx="235" cy="228" r="18" fill="#6f8fa8"/><circle cx="310" cy="228" r="18" fill="#89a9c0"/><circle cx="385" cy="228" r="18" fill="#d7b36a"/><path d="M570 145h115a22 22 0 0 1 22 22v105a22 22 0 0 1-22 22h-22v45l-55-45h-38a22 22 0 0 1-22-22V167a22 22 0 0 1 22-22z" fill="#d8b4a0"/><text x="205" y="455" font-family="sans-serif" font-size="38" font-weight="700" fill="#456277">CONVERSATION PROMPTS</text></svg>