<svg xmlns="http://www.w3.org/2000/svg" viewBox="0 0 800 500"><rect width="800" height="500" rx="36" fill="#f7f1e7"/><path d="M150 135h210a30 30 0 0 1 30 30v245H180a30 30 0 0 1-30-30z" fill="#fff" stroke="#b08b56" stroke-width="10"/><path d="M650 135H440a30 30 0 0 0-30 30v245h210a30 30 0 0 0 30-30z" fill="#fff" stroke="#b08b56" stroke-width="10"/><path d="M205 205h120M205 250h120M205 295h90M475 205h120M475 250h120M475 295h90" stroke="#8c704b" stroke-width="14" stroke-linecap="round"/><text x="225" y="455" font-family="sans-serif" font-size="40" font-weight="700" fill="#80652c">BOOKS</text></svg>