<svg xmlns="http://www.w3.org/2000/svg" viewBox="0 0 800 500"><rect width="800" height="500" rx="36" fill="#f2eef7"/><path d="M140 145h360a35 35 0 0 1 35 35v150a35 35 0 0 1-35 35H300l-80 65v-65h-80a35 35 0 0 1-35-35V180a35 35 0 0 1 35-35z" fill="#a987b3"/><path d="M440 115h190a35 35 0 0 1 35 35v115a35 35 0 0 1-35 35h-55l-45 55v-55h-90a35 35 0 0 1-35-35V150a35 35 0 0 1 35-35z" fill="#d7b36a"/><circle cx="260" cy="250" r="14" fill="#fff"/><circle cx="320" cy="250" r="14" fill="#fff"/><circle cx="380" cy="250" r="14" fill="#fff"/><text x="195" y="445" font-family="sans-serif" font-size="38" font-weight="700" fill="#665b78">LANGUAGE</text></svg>